<?xml version="1.0" encoding="UTF-8"?>
<svg width="20px" height="20px" viewBox="0 0 20 20" version="1.1" xmlns="http://www.w3.org/2000/svg" xmlns:xlink="http://www.w3.org/1999/xlink">
    <!-- Generator: Sketch 53.2 (72643) - https://sketchapp.com -->
    <title>icon_tripadvisor</title>
    <desc>Created with Sketch.</desc>
    <g id="Symbols" stroke="none" stroke-width="1" fill="none" fill-rule="evenodd">
        <g id="Sticky-Bottom-Menu---Camere" transform="translate(-675.000000, -58.000000)" fill="#AE8F63">
            <g id="Sticky-Bottom-Menu-2">
                <g id="Group-2" transform="translate(255.000000, 26.000000)">
                    <g id="Social-Media-Buttons" transform="translate(420.000000, 32.000000)">
                        <path d="M13.3506667,12.2453333 C12.4535111,12.2406222 11.6921778,11.4656889 11.7001778,10.5653333 C11.7082667,9.64915556 12.4697778,8.89866667 13.3845333,8.90533333 C14.3098667,8.912 15.0605333,9.664 15.0535111,10.5772444 C15.0463111,11.5128889 14.2935111,12.2504 13.3506667,12.2453333 M13.3448889,7.92008889 C11.8796444,7.92853333 10.6825778,9.14035556 10.6825778,10.6149333 C10.6827556,12.1023111 11.9046222,13.3240889 13.3864889,13.3184 C14.8887111,13.3128 16.0878222,12.1140444 16.088,10.6176889 C16.0881778,9.09697778 14.8824,7.91111111 13.3448889,7.92008889 M15.0671111,13.5545778 C14.3200889,13.9731556 13.5294222,14.1097778 12.6911111,13.9294222 C11.9683556,13.7740444 11.3546667,13.4223111 10.8566222,12.8730667 C10.8171556,12.8296 10.7768889,12.7868444 10.7194667,12.7247111 C10.4773333,13.0842667 10.2406222,13.4358222 9.99493333,13.8006222 C9.75306667,13.4400889 9.52088889,13.0940444 9.27751111,12.7312 C9.22008889,12.7925333 9.17057778,12.8448 9.12186667,12.8977778 C7.77688889,14.3607111 5.46888889,14.3555556 4.12773333,12.8864889 C3.09644444,11.7568 2.9488,10.0832 3.77502222,8.78986667 C3.86888889,8.64293333 3.9088,8.51528889 3.82533333,8.35617778 C3.66364444,8.04844444 3.508,7.73751111 3.3472,7.42924444 C3.32062222,7.3784 3.2808,7.3344 3.22382222,7.25484444 C3.31555556,7.25484444 3.36817778,7.25484444 3.42088889,7.25475556 C4.016,7.25457778 4.6112,7.25724444 5.20622222,7.2512 C5.29493333,7.25031111 5.3952,7.22844444 5.47013333,7.18311111 C7.13333333,6.17786667 8.94684444,5.87777778 10.8562667,6.03022222 C11.9414222,6.1168 12.9729778,6.39991111 13.9414222,6.90248889 C13.9807111,6.92275556 14.0233778,6.93875556 14.0582222,6.96506667 C14.3584889,7.192 14.6932444,7.25937778 15.0679111,7.24062222 C15.5388444,7.21724444 16.0119111,7.23644444 16.4840889,7.23733333 C16.5668444,7.23751111 16.6496,7.23733333 16.7648889,7.23733333 C16.6872889,7.36533333 16.6199111,7.45964444 16.5697778,7.56231111 C16.4279111,7.85288889 16.2938667,8.1472 16.1550222,8.43937778 C16.1074667,8.53928889 16.1253333,8.62346667 16.1864889,8.71413333 C16.4848889,9.15653333 16.688,9.63911111 16.7512,10.1711111 C16.9061333,11.4759111 16.3368889,12.8427556 15.0671111,13.5545778 M10,0 C4.47715556,0 0,4.47715556 0,10 C0,15.5228444 4.47715556,20 10,20 C15.5228444,20 20,15.5228444 20,10 C20,4.47715556 15.5228444,0 10,0 M6.56017778,12.2456 C5.66177778,12.2401778 4.90204444,11.4679111 4.9088,10.5668444 C4.91555556,9.65022222 5.67431111,8.90088889 6.59111111,8.90524444 C7.51555556,8.90977778 8.26853333,9.66275556 8.2616,10.5758222 C8.25448889,11.5132444 7.5024,12.2512 6.56017778,12.2456 M6.64195556,7.90711111 C5.17715556,7.88088889 3.95768889,9.08408889 3.93031111,10.5824889 C3.90373333,12.0360889 5.10435556,13.2735111 6.56862222,13.3020444 C8.07777778,13.3313778 9.30924444,12.1425778 9.33208889,10.6344 C9.35466667,9.14311111 8.1624,7.9344 6.64195556,7.90711111 M10.0039111,10.0466667 C9.84328889,9.27075556 9.48835556,8.60746667 8.89937778,8.07884444 C8.31431111,7.55368889 7.62311111,7.26871111 6.84035556,7.18115556 C8.94444444,6.39564444 11.0421333,6.37546667 13.1334222,7.18968889 C11.4543111,7.44995556 10.4154667,8.3936 10.0039111,10.0466667 M6.57982222,11.1291556 C6.26204444,11.1262222 6.0264,10.8835556 6.03022222,10.5629333 C6.03386667,10.2551111 6.27688889,10.0174222 6.58773333,10.0176 C6.89848889,10.0178667 7.1536,10.2721778 7.15013333,10.5782222 C7.14648889,10.8881778 6.89404444,11.1321778 6.57982222,11.1291556 M6.57973333,9.48142222 C5.99413333,9.48 5.48986667,9.98906667 5.49333333,10.5783111 C5.49688889,11.1717333 5.99182222,11.6644444 6.58728889,11.6673778 C7.18337778,11.6703111 7.68897778,11.1594667 7.67964444,10.5635556 C7.67048889,9.96462222 7.1808,9.48284444 6.57973333,9.48142222 M13.3806222,11.1243556 C13.0715556,11.1231111 12.8218667,10.8764444 12.8242667,10.5748444 C12.8267556,10.2672889 13.0730667,10.0231111 13.38,10.0237333 C13.6872,10.0243556 13.9360889,10.2705778 13.9360889,10.5739556 C13.9360889,10.8769778 13.6853333,11.1255111 13.3806222,11.1243556 M13.3375111,9.4856 C12.6866667,9.53955556 12.2408,10.0455111 12.2921778,10.6716444 C12.3390222,11.2422222 12.8734222,11.7084444 13.4282667,11.6629333 C14.0597333,11.6111111 14.5126222,11.1030222 14.4656889,10.4993778 C14.4193778,9.90577778 13.9,9.43893333 13.3375111,9.4856" id="icon_tripadvisor"></path>
                    </g>
                </g>
            </g>
        </g>
    </g>
</svg>