<?xml version="1.0" encoding="UTF-8"?>
<svg width="20px" height="20px" viewBox="0 0 20 20" version="1.1" xmlns="http://www.w3.org/2000/svg" xmlns:xlink="http://www.w3.org/1999/xlink">
    <!-- Generator: Sketch 53.2 (72643) - https://sketchapp.com -->
    <title>icon_facebook</title>
    <desc>Created with Sketch.</desc>
    <g id="Symbols" stroke="none" stroke-width="1" fill="none" fill-rule="evenodd">
        <g id="Sticky-Bottom-Menu---Camere" transform="translate(-710.000000, -58.000000)" fill="#AE8F63">
            <g id="Sticky-Bottom-Menu-2">
                <g id="Group-2" transform="translate(255.000000, 26.000000)">
                    <g id="Social-Media-Buttons" transform="translate(420.000000, 32.000000)">
                        <path d="M45.9604444,10.0016889 L45.9604444,15.9706667 L43.716,15.9706667 L43.716,10.0297778 L42.2200889,10.0297778 L42.2200889,7.92702222 L43.7069333,7.92702222 C43.7069333,7.31262222 43.6877333,6.75288889 43.7106667,6.19493333 C43.7710222,4.72186667 44.5093333,4.01537778 45.9838222,4.00097778 C46.5728,3.99528889 47.1618667,4.00008889 47.7742222,4.00008889 L47.7742222,6.09466667 C47.3550222,6.09466667 46.9460444,6.08897778 46.5372444,6.09626667 C46.1336,6.10346667 45.9535111,6.33662222 45.9493333,6.72204444 C45.9450667,7.10382222 45.9483556,7.48577778 45.9483556,7.92248889 L47.8054222,7.92248889 C47.7342222,8.61733333 47.6658667,9.28355556 47.5922667,10.0016889 L45.9604444,10.0016889 Z M35,10 C35,15.5228444 39.4771556,20 45,20 C50.5228444,20 55,15.5228444 55,10 C55,4.47724444 50.5228444,0 45,0 C39.4771556,0 35,4.47724444 35,10 Z" id="icon_facebook"></path>
                    </g>
                </g>
            </g>
        </g>
    </g>
</svg>