<?xml version="1.0" encoding="UTF-8"?>
<svg width="20px" height="20px" viewBox="0 0 20 20" version="1.1" xmlns="http://www.w3.org/2000/svg" xmlns:xlink="http://www.w3.org/1999/xlink">
    <!-- Generator: Sketch 53.2 (72643) - https://sketchapp.com -->
    <title>icon_instagram</title>
    <desc>Created with Sketch.</desc>
    <g id="Symbols" stroke="none" stroke-width="1" fill="none" fill-rule="evenodd">
        <g id="Sticky-Bottom-Menu---Camere" transform="translate(-745.000000, -58.000000)" fill="#AE8F63">
            <g id="Sticky-Bottom-Menu-2">
                <g id="Group-2" transform="translate(255.000000, 26.000000)">
                    <g id="Social-Media-Buttons" transform="translate(420.000000, 32.000000)">
                        <path d="M85.9758222,12.8522667 C85.8514667,14.5611556 84.7364444,15.6225778 83.2673778,15.8477333 C82.7009778,15.9346667 82.1220444,15.9605333 81.548,15.9711111 C80.5183111,15.9900444 79.4876444,15.9927111 78.4580444,15.9703111 C77.84,15.9569778 77.2111111,15.9440889 76.6081778,15.8249778 C75.0865778,15.5243556 74.1419556,14.4125333 74.0292444,12.8532444 C73.8918222,10.9522667 73.8907556,9.04453333 74.0291556,7.14364444 C74.1535111,5.43413333 75.2743111,4.40382222 76.7375111,4.14817778 C77.9900444,3.92933333 81.9015111,4.03057778 82.8405333,4.08577778 C83.6564444,4.13368889 84.3952889,4.40577778 85.0007111,4.98506667 C85.6167111,5.57457778 85.9250667,6.31324444 85.9779556,7.14248889 C86.0992,9.0448 86.1142222,10.9513778 85.9758222,12.8522667 M80,0 C74.4772444,0 70,4.47706667 70,10 C70,15.5228444 74.4772444,20 80,20 C85.5228444,20 90,15.5228444 90,10 C90,4.47706667 85.5228444,0 80,0 M82.0148444,10.0004444 C82.0137778,11.1092444 81.1176889,11.9965333 80,11.9956444 C78.8832889,11.9947556 77.9889778,11.1049778 77.9900444,9.99573333 C77.9910222,8.88755556 78.8879111,7.99946667 80.0048,8.00035556 C81.1216,8.00133333 82.016,8.89128889 82.0148444,10.0004444 M83.2302222,7.5208 C82.8363556,7.51946667 82.5198222,7.19813333 82.5208889,6.8008 C82.5219556,6.40506667 82.8418667,6.08453333 83.2345778,6.0856 C83.6285333,6.08666667 83.9455111,6.40791111 83.9448,6.80524444 C83.9441778,7.20106667 83.6234667,7.52204444 83.2302222,7.5208 M79.9950222,13.0611556 C78.4901333,13.0918222 76.8967111,11.8963556 76.9015111,9.99066667 C76.9063111,8.08515556 78.5041778,6.924 80.0097778,6.92728889 C81.5108444,6.93048889 83.108,8.09564444 83.1033778,10.0053333 C83.0986667,11.9121778 81.5,13.0987556 79.9950222,13.0611556 M84.7052444,6.44284444 C84.5210667,5.92933333 84.1513778,5.5592 83.6413333,5.36524444 C83.3553778,5.25635556 83.0465778,5.16711111 82.7434667,5.14968889 C80.9179556,5.04426667 79.0904,5.04266667 77.2648,5.14666667 C76.6292444,5.18302222 76.0516444,5.39457778 75.6198222,5.90026667 C75.2495111,6.33404444 75.1111111,6.85706667 75.0849778,7.40568889 C75.0023111,9.13226667 75.0019556,10.8601778 75.0875556,12.5866667 C75.1026667,12.8910222 75.1795556,13.2003556 75.2768,13.4910222 C75.4668444,14.0584889 75.8615111,14.4575111 76.4255111,14.6539556 C76.7247111,14.7580444 77.0457778,14.8336889 77.3609778,14.8510222 C78.2340444,14.8991111 79.1091556,14.9098667 79.9915556,14.9357333 C80.8811556,14.9097778 81.7781333,14.8966222 82.6738667,14.8532444 C83.3090667,14.8224 83.8913778,14.6341333 84.3406222,14.1450667 C84.7451556,13.7045333 84.8919111,13.1619556 84.9196444,12.5903111 C85.0036444,10.8637333 85.0038222,9.13564444 84.9163556,7.40942222 C84.8999111,7.08373333 84.8158222,6.75137778 84.7052444,6.44284444" id="icon_instagram"></path>
                    </g>
                </g>
            </g>
        </g>
    </g>
</svg>