<?xml version="1.0" encoding="UTF-8"?>
<svg width="12px" height="12px" viewBox="0 0 12 12" version="1.1" xmlns="http://www.w3.org/2000/svg" xmlns:xlink="http://www.w3.org/1999/xlink">
    <!-- Generator: Sketch 53.2 (72643) - https://sketchapp.com -->
    <title>Phone Icon</title>
    <desc>Created with Sketch.</desc>
    <g id="Page-1" stroke="none" stroke-width="1" fill="none" fill-rule="evenodd">
        <g id="Homepage-v9" transform="translate(-856.000000, -6635.000000)" fill="#FFFFFF" fill-rule="nonzero">
            <g id="Group" transform="translate(-498.000000, -1.000000)">
                <g id="CONTACT-Section" transform="translate(498.000000, 5823.000000)">
                    <g transform="translate(167.000000, 199.000000)" id="CALL-US">
                        <g transform="translate(660.000000, 562.000000)">
                            <g id="Suna-ne-+-Icon" transform="translate(29.000000, 50.000000)">
                                <path d="M11.7309819,11.4450966 L9.87776908,9.59167693 C9.50864342,9.2240337 8.89736416,9.23520366 8.51537927,9.61732645 L7.58172268,10.5507762 C7.52273566,10.5182661 7.46168013,10.4843081 7.39748737,10.4482815 C6.80789299,10.1215948 6.00093266,9.67383126 5.15177472,8.82405277 C4.30010009,7.97248156 3.85192286,7.16428013 3.52423636,6.57430652 C3.48965776,6.51180304 3.45652712,6.45154044 3.42381019,6.39431165 L4.0504309,5.76862177 L4.35850103,5.46017241 C4.741072,5.07749801 4.7516214,4.46639113 4.38335763,4.09767918 L2.5301448,2.24405265 C2.16188102,1.87585782 1.55032596,1.88702777 1.16775499,2.26970217 L0.645456143,2.79500036 L0.659728864,2.80916965 C0.484594994,3.03263771 0.338247893,3.29037409 0.229340827,3.56831292 C0.128949129,3.83287539 0.0664456433,4.08533706 0.0378657264,4.33831587 C-0.206839039,6.36697284 0.720198314,8.22101307 3.2360584,10.7369076 C6.7137413,14.2143492 9.51629691,13.9516484 9.63720134,13.9388236 C9.90052269,13.9073478 10.1528809,13.8444306 10.4093417,13.7448318 C10.6848673,13.6372004 10.9424313,13.4910601 11.1657615,13.3163055 L11.1771728,13.3264412 L11.7062977,12.8083138 C12.0880757,12.4257084 12.0990733,11.8143946 11.7309819,11.4450966 Z" id="Phone-Icon"></path>
                            </g>
                        </g>
                    </g>
                </g>
            </g>
        </g>
    </g>
</svg>